<svg width="36" height="38" viewBox="0 0 36 38" fill="none" xmlns="http://www.w3.org/2000/svg" xmlns:xlink="http://www.w3.org/1999/xlink">
<path d="M22.063,16.375C22.063,17.203 22.734,17.875 23.563,17.875C24.391,17.875 25.063,17.203 25.063,16.375L22.063,16.375ZM8.938,16.375C8.938,17.203 9.609,17.875 10.438,17.875C11.266,17.875 11.938,17.203 11.938,16.375L8.938,16.375ZM30.311,12.887L28.819,13.044L28.819,13.044L30.311,12.887ZM32.521,33.887L31.029,34.044L31.029,34.044L32.521,33.887ZM3.438,36.063L3.438,34.563L3.436,34.563L3.438,36.063ZM1.478,33.887L2.969,34.044L2.969,34.044L1.478,33.887ZM3.69,12.887L2.198,12.73L2.198,12.73L3.69,12.887ZM5.648,11.125L5.648,12.625L5.648,12.625L5.648,11.125ZM25.063,16.375L25.063,8.5L22.063,8.5L22.063,16.375L25.063,16.375ZM25.063,8.5C25.063,6.362 24.213,4.311 22.701,2.799L20.58,4.92C21.529,5.87 22.063,7.157 22.063,8.5L25.063,8.5ZM22.701,2.799C21.189,1.287 19.138,0.438 17,0.438L17,3.438C18.343,3.438 19.63,3.971 20.58,4.92L22.701,2.799ZM17,0.438C14.862,0.438 12.811,1.287 11.299,2.799L13.42,4.92C14.37,3.971 15.657,3.438 17,3.438L17,0.438ZM11.299,2.799C9.787,4.311 8.938,6.362 8.938,8.5L11.938,8.5C11.938,7.157 12.471,5.87 13.42,4.92L11.299,2.799ZM8.938,8.5L8.938,16.375L11.938,16.375L11.938,8.5L8.938,8.5ZM28.819,13.044L31.029,34.044L34.013,33.73L31.802,12.73L28.819,13.044ZM31.029,34.044C31.058,34.323 30.843,34.563 30.563,34.563L30.563,37.563C32.624,37.563 34.228,35.779 34.013,33.73L31.029,34.044ZM30.563,34.563L3.438,34.563L3.438,37.563L30.563,37.563L30.563,34.563ZM3.436,34.563C3.37,34.563 3.305,34.549 3.245,34.522L2.027,37.264C2.472,37.461 2.953,37.563 3.439,37.563L3.436,34.563ZM3.245,34.522C3.185,34.495 3.131,34.456 3.087,34.407L0.859,36.416C1.184,36.777 1.582,37.066 2.027,37.264L3.245,34.522ZM3.087,34.407C3.043,34.359 3.01,34.301 2.99,34.239L0.137,35.166C0.287,35.628 0.533,36.054 0.859,36.416L3.087,34.407ZM2.99,34.239C2.969,34.176 2.962,34.11 2.969,34.044L-0.014,33.73C-0.065,34.214 -0.014,34.703 0.137,35.166L2.99,34.239ZM2.969,34.044L5.181,13.044L2.198,12.73L-0.014,33.73L2.969,34.044ZM5.181,13.045C5.194,12.929 5.248,12.823 5.334,12.745L3.327,10.515C2.69,11.089 2.288,11.878 2.198,12.73L5.181,13.045ZM5.334,12.745C5.42,12.668 5.532,12.625 5.648,12.625L5.648,9.625C4.791,9.625 3.964,9.942 3.327,10.515L5.334,12.745ZM5.648,12.625L28.352,12.625L28.352,9.625L5.648,9.625L5.648,12.625ZM28.352,12.625C28.593,12.625 28.794,12.807 28.819,13.044L31.802,12.731C31.617,10.965 30.128,9.625 28.352,9.625L28.352,12.625ZM9.594,16.375C9.594,16.151 9.683,15.937 9.841,15.778L11.962,17.9C12.367,17.495 12.594,16.947 12.594,16.375L9.594,16.375ZM9.841,15.778C9.999,15.62 10.214,15.531 10.438,15.531L10.438,18.531C11.01,18.531 11.558,18.304 11.962,17.9L9.841,15.778ZM10.438,15.531C10.661,15.531 10.876,15.62 11.034,15.778L8.913,17.9C9.317,18.304 9.866,18.531 10.438,18.531L10.438,15.531ZM11.034,15.778C11.193,15.937 11.281,16.151 11.281,16.375L8.281,16.375C8.281,16.947 8.509,17.495 8.913,17.9L11.034,15.778ZM11.281,16.375C11.281,16.599 11.193,16.813 11.034,16.972L8.913,14.85C8.509,15.255 8.281,15.803 8.281,16.375L11.281,16.375ZM11.034,16.972C10.876,17.13 10.661,17.219 10.438,17.219L10.438,14.219C9.866,14.219 9.317,14.446 8.913,14.85L11.034,16.972ZM10.438,17.219C10.214,17.219 9.999,17.13 9.841,16.972L11.962,14.85C11.558,14.446 11.01,14.219 10.438,14.219L10.438,17.219ZM9.841,16.972C9.683,16.813 9.594,16.599 9.594,16.375L12.594,16.375C12.594,15.803 12.367,15.255 11.962,14.85L9.841,16.972ZM22.719,16.375C22.719,16.151 22.808,15.937 22.966,15.778L25.087,17.9C25.492,17.495 25.719,16.947 25.719,16.375L22.719,16.375ZM22.966,15.778C23.124,15.62 23.339,15.531 23.563,15.531L23.563,18.531C24.135,18.531 24.683,18.304 25.087,17.9L22.966,15.778ZM23.563,15.531C23.786,15.531 24.001,15.62 24.159,15.778L22.038,17.9C22.442,18.304 22.991,18.531 23.563,18.531L23.563,15.531ZM24.159,15.778C24.318,15.937 24.406,16.151 24.406,16.375L21.406,16.375C21.406,16.947 21.634,17.495 22.038,17.9L24.159,15.778ZM24.406,16.375C24.406,16.599 24.318,16.813 24.159,16.972L22.038,14.85C21.634,15.255 21.406,15.803 21.406,16.375L24.406,16.375ZM24.159,16.972C24.001,17.13 23.786,17.219 23.563,17.219L23.563,14.219C22.991,14.219 22.442,14.446 22.038,14.85L24.159,16.972ZM23.563,17.219C23.339,17.219 23.124,17.13 22.966,16.972L25.087,14.85C24.683,14.446 24.135,14.219 23.563,14.219L23.563,17.219ZM22.966,16.972C22.808,16.813 22.719,16.599 22.719,16.375L25.719,16.375C25.719,15.803 25.492,15.255 25.087,14.85L22.966,16.972Z" fill="#FFFFFF"/>
</svg>
